<?xml version="1.0" encoding="UTF-8"?>
<svg width="16px" height="16px" viewBox="0 0 16 16" version="1.1" xmlns="http://www.w3.org/2000/svg" xmlns:xlink="http://www.w3.org/1999/xlink">
    <title>format_align_left-black-18dp</title>
    <g id="Dispute-Details" stroke="none" stroke-width="1" fill="none" fill-rule="evenodd">
        <g id="Dispute-Details----judge-标题栏长按拖拽" transform="translate(-1095.000000, -339.000000)">
            <g id="judge" transform="translate(622.000000, 24.000000)">
                <g id="Group-13" transform="translate(24.000000, 72.000000)">
                    <g id="Group-11" transform="translate(0.000000, 165.000000)">
                        <g id="Group-14" transform="translate(0.000000, 66.000000)">
                            <g id="format_align_left-black-18dp" transform="translate(449.000000, 12.000000)">
                                <polygon id="Path" points="0 0 16 0 16 16 0 16"></polygon>
                                <path d="M10,10 L2,10 L2,11.3333333 L10,11.3333333 L10,10 Z M10,4.66666667 L2,4.66666667 L2,6 L10,6 L10,4.66666667 Z M2,8.66666667 L14,8.66666667 L14,7.33333333 L2,7.33333333 L2,8.66666667 Z M2,14 L14,14 L14,12.6666667 L2,12.6666667 L2,14 Z M2,2 L2,3.33333333 L14,3.33333333 L14,2 L2,2 Z" id="Shape" fill="#445571" fill-rule="nonzero"></path>
                            </g>
                        </g>
                    </g>
                </g>
            </g>
        </g>
    </g>
</svg>