<?xml version="1.0" standalone="no"?><!DOCTYPE svg PUBLIC "-//W3C//DTD SVG 1.1//EN" "http://www.w3.org/Graphics/SVG/1.1/DTD/svg11.dtd"><svg t="1602470542554" class="icon" viewBox="0 0 1024 1024" version="1.1" xmlns="http://www.w3.org/2000/svg" p-id="1155" xmlns:xlink="http://www.w3.org/1999/xlink" width="64" height="64"><defs><style type="text/css"></style></defs><path d="M882.5 77.6c-0.8-9-10.9-13.3-10.9-13.3s-10.7-1.6-19.3 3.2C837.6 75.7 816.2 86 714 210.7 642.9 297.5 555.1 413.9 504.2 480c-38.1 49.2-40.5 83.5-32.4 103 1.6 3.8 13.3 21.1 30.1 31.1 12.2 7.3 27.7 8.4 41.3 8.8 22 0.7 42.9-15 42.9-15s11.1-10.3 27.8-34C648.1 525.4 708.4 433 760.7 344 827 231.6 876.2 115 876.2 115s7.6-22.6 6.3-37.4zM461.9 658.1c-34.1-31.3-79.8-33.3-79.8-33.3s-44-4.6-73.4 15.7C260.1 674 259.2 742 258.8 752.1c-1.1 30.8 1.4 67.9-17.4 100.5-27.7 48-100.1 68-100.1 68s12.3 14.9 29.9 23.6c0.1 0.1 56 32 171.4 4.6 31.5-7.5 66.4-17.1 94.7-34.8 34.6-21.6 60.2-52.3 67.1-67.5 30-65 14.7-135.9-42.5-188.4z" fill="#445571" p-id="1156"></path></svg>