<?xml version="1.0" encoding="UTF-8"?>
<svg width="16px" height="16px" viewBox="0 0 16 16" version="1.1" xmlns="http://www.w3.org/2000/svg" xmlns:xlink="http://www.w3.org/1999/xlink">
    <title>format_bold-black-18dp</title>
    <g id="Dispute-Details" stroke="none" stroke-width="1" fill="none" fill-rule="evenodd">
        <g id="Dispute-Details----judge-标题栏长按拖拽" transform="translate(-892.000000, -339.000000)">
            <g id="judge" transform="translate(622.000000, 24.000000)">
                <g id="Group-13" transform="translate(24.000000, 72.000000)">
                    <g id="Group-11" transform="translate(0.000000, 165.000000)">
                        <g id="Group-14" transform="translate(0.000000, 66.000000)">
                            <g id="format_bold-black-18dp" transform="translate(246.000000, 12.000000)">
                                <polygon id="Path" points="0 0 16 0 16 16 0 16"></polygon>
                                <path d="M10.4,7.19333333 C11.0466667,6.74666667 11.5,6.01333333 11.5,5.33333333 C11.5,3.82666667 10.3333333,2.66666667 8.83333333,2.66666667 L4.66666667,2.66666667 L4.66666667,12 L9.36,12 C10.7533333,12 11.8333333,10.8666667 11.8333333,9.47333333 C11.8333333,8.46 11.26,7.59333333 10.4,7.19333333 Z M6.66666667,4.33333333 L8.66666667,4.33333333 C9.22,4.33333333 9.66666667,4.78 9.66666667,5.33333333 C9.66666667,5.88666667 9.22,6.33333333 8.66666667,6.33333333 L6.66666667,6.33333333 L6.66666667,4.33333333 Z M9,10.3333333 L6.66666667,10.3333333 L6.66666667,8.33333333 L9,8.33333333 C9.55333333,8.33333333 10,8.78 10,9.33333333 C10,9.88666667 9.55333333,10.3333333 9,10.3333333 Z" id="Shape" fill="#445571" fill-rule="nonzero"></path>
                            </g>
                        </g>
                    </g>
                </g>
            </g>
        </g>
    </g>
</svg>