<?xml version="1.0" encoding="UTF-8"?>
<svg width="16px" height="16px" viewBox="0 0 16 16" version="1.1" xmlns="http://www.w3.org/2000/svg" xmlns:xlink="http://www.w3.org/1999/xlink">
    <title>format_clear-black-18dp</title>
    <g id="Dispute-Details" stroke="none" stroke-width="1" fill="none" fill-rule="evenodd">
        <g id="Dispute-Details----judge-标题栏长按拖拽" transform="translate(-1176.000000, -339.000000)">
            <g id="judge" transform="translate(622.000000, 24.000000)">
                <g id="Group-13" transform="translate(24.000000, 72.000000)">
                    <g id="Group-11" transform="translate(0.000000, 165.000000)">
                        <g id="Group-14" transform="translate(0.000000, 66.000000)">
                            <g id="format_clear-black-18dp" transform="translate(530.000000, 12.000000)">
                                <polygon id="Path" points="0 0 16 0 16 16 0 16"></polygon>
                                <path d="M2.18,3.33333333 L1.33333333,4.18 L5.98,8.82666667 L4.33333333,12.6666667 L6.33333333,12.6666667 L7.38,10.2266667 L11.1533333,14 L12,13.1533333 L2.36666667,3.51333333 L2.18,3.33333333 Z M4,3.33333333 L4,3.45333333 L5.88,5.33333333 L7.48,5.33333333 L7,6.45333333 L8.4,7.85333333 L9.47333333,5.33333333 L13.3333333,5.33333333 L13.3333333,3.33333333 L4,3.33333333 Z" id="Shape" fill="#445571" fill-rule="nonzero"></path>
                            </g>
                        </g>
                    </g>
                </g>
            </g>
        </g>
    </g>
</svg>