<svg width="16" height="16" viewBox="0 0 16 16" fill="none" xmlns="http://www.w3.org/2000/svg">
<path d="M14.0357 3H1.96429C1.70748 3 1.5 3.20748 1.5 3.46429V12.75C1.5 13.0068 1.70748 13.2143 1.96429 13.2143H14.0357C14.2925 13.2143 14.5 13.0068 14.5 12.75V3.46429C14.5 3.20748 14.2925 3 14.0357 3ZM13.4554 12.1696H2.54464V11.5907L4.55413 9.20692L6.73192 11.7895L10.1198 7.77344L13.4554 11.7286V12.1696ZM13.4554 10.2864L10.2083 6.43571C10.1618 6.38058 10.0777 6.38058 10.0312 6.43571L6.73192 10.3473L4.64263 7.87065C4.59621 7.81551 4.51205 7.81551 4.46562 7.87065L2.54464 10.1485V4.04464H13.4554V10.2864ZM4.98214 7.29464C5.68728 7.29464 6.25893 6.72299 6.25893 6.01786C6.25893 5.31272 5.68728 4.74107 4.98214 4.74107C4.27701 4.74107 3.70536 5.31272 3.70536 6.01786C3.70536 6.72299 4.27701 7.29464 4.98214 7.29464ZM4.98214 5.61161C5.20703 5.61161 5.38839 5.79297 5.38839 6.01786C5.38839 6.24275 5.20703 6.42411 4.98214 6.42411C4.75725 6.42411 4.57589 6.24275 4.57589 6.01786C4.57589 5.79297 4.75725 5.61161 4.98214 5.61161Z" fill="#333333"/>
</svg>
