<?xml version="1.0" encoding="UTF-8"?>
<svg width="16px" height="16px" viewBox="0 0 16 16" version="1.1" xmlns="http://www.w3.org/2000/svg" xmlns:xlink="http://www.w3.org/1999/xlink">
    <title>format_indent_decrease-black-18dp</title>
    <g id="Dispute-Details" stroke="none" stroke-width="1" fill="none" fill-rule="evenodd">
        <g id="Dispute-Details----judge-标题栏长按拖拽" transform="translate(-1119.000000, -339.000000)">
            <g id="judge" transform="translate(622.000000, 24.000000)">
                <g id="Group-13" transform="translate(24.000000, 72.000000)">
                    <g id="Group-11" transform="translate(0.000000, 165.000000)">
                        <g id="Group-14" transform="translate(0.000000, 66.000000)">
                            <g id="format_indent_decrease-black-18dp" transform="translate(473.000000, 12.000000)">
                                <polygon id="Path" points="0 0 16 0 16 16 0 16"></polygon>
                                <path d="M7.33333333,11.3333333 L14,11.3333333 L14,10 L7.33333333,10 L7.33333333,11.3333333 Z M2,8 L4.66666667,10.6666667 L4.66666667,5.33333333 L2,8 Z M2,14 L14,14 L14,12.6666667 L2,12.6666667 L2,14 Z M2,2 L2,3.33333333 L14,3.33333333 L14,2 L2,2 Z M7.33333333,6 L14,6 L14,4.66666667 L7.33333333,4.66666667 L7.33333333,6 Z M7.33333333,8.66666667 L14,8.66666667 L14,7.33333333 L7.33333333,7.33333333 L7.33333333,8.66666667 Z" id="Shape" fill="#445571" fill-rule="nonzero"></path>
                            </g>
                        </g>
                    </g>
                </g>
            </g>
        </g>
    </g>
</svg>