<?xml version="1.0" encoding="UTF-8"?>
<svg width="16px" height="16px" viewBox="0 0 16 16" version="1.1" xmlns="http://www.w3.org/2000/svg" xmlns:xlink="http://www.w3.org/1999/xlink">
    <title>insert_link-black-18dp</title>
    <g id="Dispute-Details" stroke="none" stroke-width="1" fill="none" fill-rule="evenodd">
        <g id="Dispute-Details----judge-标题栏长按拖拽" transform="translate(-1208.000000, -339.000000)">
            <g id="judge" transform="translate(622.000000, 24.000000)">
                <g id="Group-13" transform="translate(24.000000, 72.000000)">
                    <g id="Group-11" transform="translate(0.000000, 165.000000)">
                        <g id="Group-14" transform="translate(0.000000, 66.000000)">
                            <g id="insert_link-black-18dp" transform="translate(562.000000, 12.000000)">
                                <polygon id="Path" points="0 0 16 0 16 16 0 16"></polygon>
                                <path d="M2.6,8 C2.6,6.86 3.52666667,5.93333333 4.66666667,5.93333333 L7.33333333,5.93333333 L7.33333333,4.66666667 L4.66666667,4.66666667 C2.82666667,4.66666667 1.33333333,6.16 1.33333333,8 C1.33333333,9.84 2.82666667,11.3333333 4.66666667,11.3333333 L7.33333333,11.3333333 L7.33333333,10.0666667 L4.66666667,10.0666667 C3.52666667,10.0666667 2.6,9.14 2.6,8 Z M5.33333333,8.66666667 L10.6666667,8.66666667 L10.6666667,7.33333333 L5.33333333,7.33333333 L5.33333333,8.66666667 Z M11.3333333,4.66666667 L8.66666667,4.66666667 L8.66666667,5.93333333 L11.3333333,5.93333333 C12.4733333,5.93333333 13.4,6.86 13.4,8 C13.4,9.14 12.4733333,10.0666667 11.3333333,10.0666667 L8.66666667,10.0666667 L8.66666667,11.3333333 L11.3333333,11.3333333 C13.1733333,11.3333333 14.6666667,9.84 14.6666667,8 C14.6666667,6.16 13.1733333,4.66666667 11.3333333,4.66666667 Z" id="Shape" fill="#445571" fill-rule="nonzero"></path>
                            </g>
                        </g>
                    </g>
                </g>
            </g>
        </g>
    </g>
</svg>