<?xml version="1.0" encoding="UTF-8"?>
<svg width="16px" height="16px" viewBox="0 0 16 16" version="1.1" xmlns="http://www.w3.org/2000/svg" xmlns:xlink="http://www.w3.org/1999/xlink">
    <title>format_list_bulleted-black-18dp</title>
    <g id="Dispute-Details" stroke="none" stroke-width="1" fill="none" fill-rule="evenodd">
        <g id="Dispute-Details----judge-标题栏长按拖拽" transform="translate(-1062.000000, -338.000000)">
            <g id="judge" transform="translate(622.000000, 24.000000)">
                <g id="Group-13" transform="translate(24.000000, 72.000000)">
                    <g id="Group-11" transform="translate(0.000000, 165.000000)">
                        <g id="Group-14" transform="translate(0.000000, 66.000000)">
                            <g id="format_list_bulleted-black-18dp" transform="translate(416.000000, 11.000000)">
                                <polygon id="Path" points="0 0 16 0 16 16 0 16"></polygon>
                                <path d="M2.66666667,7 C2.11333333,7 1.66666667,7.44666667 1.66666667,8 C1.66666667,8.55333333 2.11333333,9 2.66666667,9 C3.22,9 3.66666667,8.55333333 3.66666667,8 C3.66666667,7.44666667 3.22,7 2.66666667,7 Z M2.66666667,3 C2.11333333,3 1.66666667,3.44666667 1.66666667,4 C1.66666667,4.55333333 2.11333333,5 2.66666667,5 C3.22,5 3.66666667,4.55333333 3.66666667,4 C3.66666667,3.44666667 3.22,3 2.66666667,3 Z M2.66666667,11 C2.11333333,11 1.66666667,11.4533333 1.66666667,12 C1.66666667,12.5466667 2.12,13 2.66666667,13 C3.21333333,13 3.66666667,12.5466667 3.66666667,12 C3.66666667,11.4533333 3.22,11 2.66666667,11 Z M4.66666667,12.6666667 L14,12.6666667 L14,11.3333333 L4.66666667,11.3333333 L4.66666667,12.6666667 Z M4.66666667,8.66666667 L14,8.66666667 L14,7.33333333 L4.66666667,7.33333333 L4.66666667,8.66666667 Z M4.66666667,3.33333333 L4.66666667,4.66666667 L14,4.66666667 L14,3.33333333 L4.66666667,3.33333333 Z" id="Shape" fill="#445571" fill-rule="nonzero"></path>
                            </g>
                        </g>
                    </g>
                </g>
            </g>
        </g>
    </g>
</svg>