<?xml version="1.0" encoding="UTF-8"?>
<svg width="16px" height="16px" viewBox="0 0 16 16" version="1.1" xmlns="http://www.w3.org/2000/svg" xmlns:xlink="http://www.w3.org/1999/xlink">
    <title>format_list_numbered-black-18dp</title>
    <g id="Dispute-Details" stroke="none" stroke-width="1" fill="none" fill-rule="evenodd">
        <g id="Dispute-Details----judge-标题栏长按拖拽" transform="translate(-1038.000000, -338.000000)">
            <g id="judge" transform="translate(622.000000, 24.000000)">
                <g id="Group-13" transform="translate(24.000000, 72.000000)">
                    <g id="Group-11" transform="translate(0.000000, 165.000000)">
                        <g id="Group-14" transform="translate(0.000000, 66.000000)">
                            <g id="format_list_numbered-black-18dp" transform="translate(392.000000, 11.000000)">
                                <polygon id="Path" points="0 0 16 0 16 16 0 16"></polygon>
                                <path d="M1.33333333,11.3333333 L2.66666667,11.3333333 L2.66666667,11.6666667 L2,11.6666667 L2,12.3333333 L2.66666667,12.3333333 L2.66666667,12.6666667 L1.33333333,12.6666667 L1.33333333,13.3333333 L3.33333333,13.3333333 L3.33333333,10.6666667 L1.33333333,10.6666667 L1.33333333,11.3333333 Z M2,5.33333333 L2.66666667,5.33333333 L2.66666667,2.66666667 L1.33333333,2.66666667 L1.33333333,3.33333333 L2,3.33333333 L2,5.33333333 Z M1.33333333,7.33333333 L2.53333333,7.33333333 L1.33333333,8.73333333 L1.33333333,9.33333333 L3.33333333,9.33333333 L3.33333333,8.66666667 L2.13333333,8.66666667 L3.33333333,7.26666667 L3.33333333,6.66666667 L1.33333333,6.66666667 L1.33333333,7.33333333 Z M4.66666667,3.33333333 L4.66666667,4.66666667 L14,4.66666667 L14,3.33333333 L4.66666667,3.33333333 Z M4.66666667,12.6666667 L14,12.6666667 L14,11.3333333 L4.66666667,11.3333333 L4.66666667,12.6666667 Z M4.66666667,8.66666667 L14,8.66666667 L14,7.33333333 L4.66666667,7.33333333 L4.66666667,8.66666667 Z" id="Shape" fill="#445571" fill-rule="nonzero"></path>
                            </g>
                        </g>
                    </g>
                </g>
            </g>
        </g>
    </g>
</svg>