<?xml version="1.0" encoding="UTF-8"?>
<svg width="16px" height="16px" viewBox="0 0 16 16" version="1.1" xmlns="http://www.w3.org/2000/svg" xmlns:xlink="http://www.w3.org/1999/xlink">
    <title>strikethrough_s-black-18dp</title>
    <g id="Dispute-Details" stroke="none" stroke-width="1" fill="none" fill-rule="evenodd">
        <g id="Dispute-Details----judge-标题栏长按拖拽" transform="translate(-964.000000, -339.000000)">
            <g id="judge" transform="translate(622.000000, 24.000000)">
                <g id="Group-13" transform="translate(24.000000, 72.000000)">
                    <g id="Group-11" transform="translate(0.000000, 165.000000)">
                        <g id="Group-14" transform="translate(0.000000, 66.000000)">
                            <g id="strikethrough_s-black-18dp" transform="translate(318.000000, 12.000000)">
                                <rect id="Rectangle" x="0" y="0" width="16" height="16"></rect>
                                <path d="M4.56666667,4.72 C4.56666667,2.91333333 6.3,2 8.16,2 C9.25333333,2 10.16,2.32666667 10.76,2.85333333 C11.2733333,3.28666667 11.7333333,4.00666667 11.7333333,5.01333333 L9.72666667,5.01333333 C9.72666667,4.80666667 9.69333333,4.62 9.62666667,4.44666667 C9.43333333,3.87333333 8.82666667,3.59333333 8.12666667,3.59333333 C6.88666667,3.59333333 6.56666667,4.27333333 6.56666667,4.72666667 C6.56666667,5.04666667 6.73333333,5.31333333 7.06,5.53333333 C7.31333333,5.7 7.57333333,5.85333333 8,6 L4.92666667,6 C4.78666667,5.77333333 4.56666667,5.40666667 4.56666667,4.72 Z M14,8 L14,6.66666667 L2,6.66666667 L2,8 L8.41333333,8 C9.18,8.3 9.72,8.5 9.72,9.31333333 C9.72,9.98 9.18,10.4266667 8.2,10.4266667 C7.17333333,10.4266667 6.24666667,10.0666667 6.24666667,8.75333333 L4.26666667,8.75333333 C4.26666667,9.12 4.32,9.50666667 4.42666667,9.80666667 C4.96666667,11.3333333 6.62,12.0066667 8.20666667,12.0066667 C9.72,12.0066667 11.74,11.4133333 11.74,9.30666667 C11.74,9.10666667 11.7333333,8.53333333 11.42,8.01333333 L14,8.01333333 L14,8 Z" id="Shape" fill="#445571" fill-rule="nonzero"></path>
                            </g>
                        </g>
                    </g>
                </g>
            </g>
        </g>
    </g>
</svg>