<?xml version="1.0" encoding="UTF-8"?>
<svg width="16px" height="16px" viewBox="0 0 16 16" version="1.1" xmlns="http://www.w3.org/2000/svg" xmlns:xlink="http://www.w3.org/1999/xlink">
    <title>subscript-black-18dp</title>
    <g id="Dispute-Details" stroke="none" stroke-width="1" fill="none" fill-rule="evenodd">
        <g id="Dispute-Details----judge-标题栏长按拖拽" transform="translate(-1241.000000, -339.000000)">
            <g id="judge" transform="translate(622.000000, 24.000000)">
                <g id="Group-13" transform="translate(24.000000, 72.000000)">
                    <g id="Group-11" transform="translate(0.000000, 165.000000)">
                        <g id="Group-14" transform="translate(0.000000, 66.000000)">
                            <g id="subscript-black-18dp" transform="translate(595.000000, 12.000000)">
                                <rect id="Rectangle" x="0" y="0" width="16" height="16"></rect>
                                <path d="M14.6666667,12 L13.3333333,12 L13.3333333,12.6666667 L15.3333333,12.6666667 L15.3333333,13.3333333 L12.6666667,13.3333333 L12.6666667,12 C12.6666667,11.6333333 12.9666667,11.3333333 13.3333333,11.3333333 L14.6666667,11.3333333 L14.6666667,10.6666667 L12.6666667,10.6666667 L12.6666667,10 L14.6666667,10 C15.0333333,10 15.3333333,10.3 15.3333333,10.6666667 L15.3333333,11.3333333 C15.3333333,11.7 15.0333333,12 14.6666667,12 Z M3.92,12 L5.69333333,12 L7.96,8.38666667 L8.04,8.38666667 L10.3066667,12 L12.08,12 L8.98,7.15333333 L11.8733333,2.66666667 L10.0866667,2.66666667 L8.04,5.99333333 L7.96,5.99333333 L5.9,2.66666667 L4.12666667,2.66666667 L7.00666667,7.15333333 L3.92,12 Z" id="Shape" fill="#445571" fill-rule="nonzero"></path>
                            </g>
                        </g>
                    </g>
                </g>
            </g>
        </g>
    </g>
</svg>