<?xml version="1.0" encoding="UTF-8"?>
<svg width="16px" height="16px" viewBox="0 0 16 16" version="1.1" xmlns="http://www.w3.org/2000/svg" xmlns:xlink="http://www.w3.org/1999/xlink">
    <title>superscript-black-18dp</title>
    <g id="Dispute-Details" stroke="none" stroke-width="1" fill="none" fill-rule="evenodd">
        <g id="Dispute-Details----judge-标题栏长按拖拽" transform="translate(-1265.000000, -339.000000)">
            <g id="judge" transform="translate(622.000000, 24.000000)">
                <g id="Group-13" transform="translate(24.000000, 72.000000)">
                    <g id="Group-11" transform="translate(0.000000, 165.000000)">
                        <g id="Group-14" transform="translate(0.000000, 66.000000)">
                            <g id="superscript-black-18dp" transform="translate(619.000000, 12.000000)">
                                <rect id="Rectangle" x="0" y="0" width="16" height="16"></rect>
                                <path d="M14.6666667,4.66666667 L13.3333333,4.66666667 L13.3333333,5.33333333 L15.3333333,5.33333333 L15.3333333,6 L12.6666667,6 L12.6666667,4.66666667 C12.6666667,4.3 12.9666667,4 13.3333333,4 L14.6666667,4 L14.6666667,3.33333333 L12.6666667,3.33333333 L12.6666667,2.66666667 L14.6666667,2.66666667 C15.0333333,2.66666667 15.3333333,2.96666667 15.3333333,3.33333333 L15.3333333,4 C15.3333333,4.36666667 15.0333333,4.66666667 14.6666667,4.66666667 Z M3.92,13.3333333 L5.69333333,13.3333333 L7.96,9.72 L8.04,9.72 L10.3066667,13.3333333 L12.08,13.3333333 L8.98,8.48666667 L11.8733333,4 L10.0866667,4 L8.04,7.32666667 L7.96,7.32666667 L5.9,4 L4.12666667,4 L7.00666667,8.48666667 L3.92,13.3333333 Z" id="Shape" fill="#445571" fill-rule="nonzero"></path>
                            </g>
                        </g>
                    </g>
                </g>
            </g>
        </g>
    </g>
</svg>